jumper10dof24musc.osim_states
version=1
nRows=5
nColumns=69
inDegrees=yes

# SIMM Motion File Header:
name jumper10dof24musc.osim_states
datacolumns 69
datarows 5
otherdata 1
range 0.60418888 0.60606803
endheader
time	pelvis_tilt	pelvis_tx	pelvis_ty	hip_flexion_r	knee_angle_r	ankle_angle_r	hip_flexion_l	knee_angle_l	ankle_angle_l	lumbar_extension	pelvis_tilt_u	pelvis_tx_u	pelvis_ty_u	hip_flexion_r_u	knee_angle_r_u	ankle_angle_r_u	hip_flexion_l_u	knee_angle_l_u	ankle_angle_l_u	lumbar_extension_u	hamstrings_r.activation	hamstrings_r.fiber_length	bifemsh_r.activation	bifemsh_r.fiber_length	glut_max_r.activation	glut_max_r.fiber_length	iliopsoas_r.activation	iliopsoas_r.fiber_length	rect_fem_r.activation	rect_fem_r.fiber_length	vasti_r.activation	vasti_r.fiber_length	gastroc_r.activation	gastroc_r.fiber_length	soleus_r.activation	soleus_r.fiber_length	tib_ant_r.activation	tib_ant_r.fiber_length	ercspn_r.activation	ercspn_r.fiber_length	intobl_r.activation	intobl_r.fiber_length	extobl_r.activation	extobl_r.fiber_length	hamstrings_l.activation	hamstrings_l.fiber_length	bifemsh_l.activation	bifemsh_l.fiber_length	glut_max_l.activation	glut_max_l.fiber_length	iliopsoas_l.activation	iliopsoas_l.fiber_length	rect_fem_l.activation	rect_fem_l.fiber_length	vasti_l.activation	vasti_l.fiber_length	gastroc_l.activation	gastroc_l.fiber_length	soleus_l.activation	soleus_l.fiber_length	tib_ant_l.activation	tib_ant_l.fiber_length	ercspn_l.activation	ercspn_l.fiber_length	intobl_l.activation	intobl_l.fiber_length	extobl_l.activation	extobl_l.fiber_length
      0.60418888	      7.75424660	      0.06330749	      0.93882288	    -22.93334755	      3.03324483	      8.62129641	    -22.93334462	      3.03324341	      8.62129699	     -8.89011332	    -73.23623442	      0.48812665	      0.26751312	     78.06126284	    -44.94422164	    -64.66687958	     78.06131694	    -44.94432512	    -64.66680785	    265.16778857	      0.12439425	      0.07193361	      0.06134153	      0.17136488	      0.12011895	      0.05796471	      0.06704862	      0.11434235	      0.05473997	      0.10896017	      0.04609425	      0.06274121	      0.35819598	      0.09598836	      0.16277157	      0.04889606	      0.13261823	      0.07070120	      0.99995851	      0.12526547	      0.19758366	      0.08890623	      0.13431048	      0.12115828	      0.12439425	      0.07193361	      0.06134153	      0.17136488	      0.12011895	      0.05796471	      0.06704862	      0.11434234	      0.05473997	      0.10896017	      0.04609425	      0.06274121	      0.35819598	      0.09598836	      0.16277157	      0.04889606	      0.13261823	      0.07070120	      0.99995851	      0.12526547	      0.19758366	      0.08890623	      0.13431048	      0.12115828
      0.60462211	      7.72205003	      0.06351976	      0.93893784	    -22.89933647	      3.01427430	      8.59307144	    -22.89933351	      3.01427283	      8.59307204	     -8.77452924	    -75.39974592	      0.49184351	      0.26319835	     78.95729497	    -42.64474532	    -65.62712970	     78.95734595	    -42.64484268	    -65.62706171	    268.42833485	      0.12354752	      0.07193989	      0.06101353	      0.17135899	      0.11931143	      0.05800270	      0.06667892	      0.11432791	      0.05445889	      0.10897709	      0.04587251	      0.06276160	      0.35773728	      0.09596994	      0.16154674	      0.04889882	      0.13169445	      0.07072915	      0.99995939	      0.12519010	      0.19597509	      0.08901649	      0.13337058	      0.12130743	      0.12354752	      0.07193989	      0.06101353	      0.17135899	      0.11931143	      0.05800271	      0.06667892	      0.11432791	      0.05445889	      0.10897709	      0.04587251	      0.06276160	      0.35773728	      0.09596994	      0.16154674	      0.04889882	      0.13169445	      0.07072915	      0.99995939	      0.12519010	      0.19597509	      0.08901649	      0.13337058	      0.12130743
      0.60514755	      7.68174265	      0.06377937	      0.93907475	    -22.85755345	      2.99258077	      8.55829572	    -22.85755047	      2.99257926	      8.55829636	     -8.63244906	    -78.02406316	      0.49628512	      0.25794147	     80.09209439	    -39.94428354	    -66.72921282	     80.09214164	    -39.94437356	    -66.72914939	    272.37534238	      0.12253104	      0.07194819	      0.06061888	      0.17135228	      0.11834186	      0.05804927	      0.06623418	      0.11431026	      0.05412062	      0.10899665	      0.04560557	      0.06278534	      0.35718084	      0.09594736	      0.16007835	      0.04890193	      0.13058579	      0.07076394	      0.99996045	      0.12509723	      0.19404905	      0.08915200	      0.13224263	      0.12148852	      0.12253104	      0.07194819	      0.06061888	      0.17135228	      0.11834186	      0.05804927	      0.06623418	      0.11431026	      0.05412062	      0.10899665	      0.04560557	      0.06278534	      0.35718084	      0.09594736	      0.16007835	      0.04890193	      0.13058579	      0.07076394	      0.99996045	      0.12509723	      0.19404905	      0.08915200	      0.13224263	      0.12148852
      0.60567299	      7.64005754	      0.06404129	      0.93920890	    -22.81516180	      2.97228093	      8.52295869	    -22.81515880	      2.97227937	      8.52295936	     -8.48829868	    -80.64017942	      0.50065090	      0.25267169	     81.26965172	    -37.33920575	    -67.76466882	     81.26969531	    -37.33928853	    -67.76460995	    276.30365773	      0.12152588	      0.07195729	      0.06022767	      0.17134604	      0.11738294	      0.05809639	      0.06579343	      0.11429244	      0.05378521	      0.10901517	      0.04534080	      0.06280804	      0.35662430	      0.09592454	      0.15862846	      0.04890477	      0.12948982	      0.07079964	      0.99996147	      0.12500276	      0.19214981	      0.08928939	      0.13112767	      0.12167461	      0.12152588	      0.07195729	      0.06022767	      0.17134604	      0.11738294	      0.05809639	      0.06579343	      0.11429244	      0.05378521	      0.10901517	      0.04534080	      0.06280804	      0.35662430	      0.09592454	      0.15862846	      0.04890477	      0.12948982	      0.07079964	      0.99996147	      0.12500276	      0.19214981	      0.08928939	      0.13112767	      0.12167461
      0.60606803	      7.60781274	      0.06423970	      0.93930793	    -22.78287612	      2.95790646	      8.49604292	    -22.78287310	      2.95790487	      8.49604361	     -8.37856499	    -82.60775152	      0.50388543	      0.24869356	     82.19013444	    -35.44460522	    -68.49743965	     82.19017530	    -35.44468262	    -68.49738419	    279.25236061	      0.12077753	      0.07196470	      0.05993579	      0.17134165	      0.11666890	      0.05813220	      0.06546465	      0.11427892	      0.05353491	      0.10902843	      0.04514315	      0.06282444	      0.35620581	      0.09590723	      0.15755038	      0.04890674	      0.12867408	      0.07082703	      0.99996223	      0.12493068	      0.19073926	      0.08939404	      0.13029785	      0.12181278	      0.12077753	      0.07196470	      0.05993579	      0.17134165	      0.11666890	      0.05813221	      0.06546465	      0.11427892	      0.05353491	      0.10902843	      0.04514315	      0.06282444	      0.35620581	      0.09590722	      0.15755038	      0.04890674	      0.12867408	      0.07082703	      0.99996223	      0.12493068	      0.19073926	      0.08939404	      0.13029785	      0.12181278
